{"title":"Zumbo's Just Desserts - S01E10 - Golden Ticket","uid":15861188,"size":433552968,"categoryP":"video","categoryS":"tv_shows","magnet":"?xt=urn:btih:60ca704e56f3a4384b973f3a45fef5b22c2bc6ba&amp;dn=Zumbo%27s+Just+Desserts+-+S01E10+-+Golden+Ticket&amp;tr=udp%3A%2F%2Ftracker.leechers-paradise.org%3A6969&amp;tr=udp%3A%2F%2Fzer0day.ch%3A1337&amp;tr=udp%3A%2F%2Fopen.demonii.com%3A1337&amp;tr=udp%3A%2F%2Ftracker.coppersurfer.tk%3A6969&amp;tr=udp%3A%2F%2Fexodus.desync.com%3A6969","seeders":12,"leechers":2,"uploader":"Bullrout","files":1,"time":1474298450,"description":"Zumbo's Just Desserts - S01E10 - Golden Ticket\r\n\r\nA golden surprise is in store for the remaining contestants.\r\n\r\nComplete name                            : Zumbo's Just Desserts - S01E10 - Golden Ticket.mp4\r\nFormat                                   : MPEG-4\r\nFormat profile                           : Base Media / Version 2\r\nCodec ID                                 : mp42 (mp42/isom/avc1)\r\nFile size                                : 413 MiB\r\nDuration                                 : 51 min 47 s\r\nOverall bit rate mode                    : Variable\r\nOverall bit rate                         : 1 116 kb/s\r\n\r\n\r\nVideo\r\nID                                       : 2\r\nFormat                                   : AVC\r\nFormat/Info                              : Advanced Video Codec\r\nFormat profile                           :   \r\nFormat settings, CABAC                   : Yes\r\nFormat settings, ReFrames                : 3 frames\r\nCodec ID                                 : avc1\r\nCodec ID/Info                            : Advanced Video Coding\r\nDuration                                 : 51 min 47 s\r\nBit rate mode                            : Variable\r\nBit rate                                 : 984 kb/s\r\nMaximum bit rate                         : 1 000 kb/s\r\nWidth                                    : 720 pixels\r\nHeight                                   : 404 pixels\r\nDisplay aspect ratio                     : 16:9\r\nOriginal display aspect ratio            : 16:9\r\nFrame rate mode                          : Constant\r\nFrame rate                               : 25.000 FPS\r\nStandard                                 : PAL\r\nColor space                              : YUV\r\nChroma subsampling                       : 4:2:0\r\nBit depth                                : 8 bits\r\nScan type                                : Progressive\r\nBits/(Pixel*Frame)                       : 0.135\r\nStream size                              : 365 MiB (88%)\r\nWriting library                          : x264 core 112\r\nColor range                              : Limited\r\nColor primaries                          : BT.601 PAL\r\nTransfer characteristics                 : BT.470 System B, BT.470 System G\r\nMatrix coefficients                      : BT.601\r\n\r\nAudio\r\nID                                       : 1\r\nFormat                                   : AAC\r\nFormat/Info                              : Advanced Audio Codec\r\nFormat profile                           : LC\r\nCodec ID                                 : 40\r\nDuration                                 : 51 min 47 s\r\nBit rate mode                            : Variable\r\nBit rate                                 : 128 kb/s\r\nMaximum bit rate                         : 576 kb/s\r\nChannel(s)                               : 2 channels\r\nChannel positions                        : Front: L R\r\nSampling rate                            : 48.0 kHz\r\nFrame rate                               : 46.875 FPS (1024 spf)\r\nCompression mode                         : Lossy\r\nStream size                              : 47.4 MiB (11%)","torrent":{"xt":"urn:btih:60ca704e56f3a4384b973f3a45fef5b22c2bc6ba","amp;dn":"Zumbo%27s+Just+Desserts+-+S01E10+-+Golden+Ticket","amp;tr":["udp%3A%2F%2Ftracker.leechers-paradise.org%3A6969","udp%3A%2F%2Fzer0day.ch%3A1337","udp%3A%2F%2Fopen.demonii.com%3A1337","udp%3A%2F%2Ftracker.coppersurfer.tk%3A6969","udp%3A%2F%2Fexodus.desync.com%3A6969"],"infoHash":"60ca704e56f3a4384b973f3a45fef5b22c2bc6ba","infoHashBuffer":{"type":"Buffer","data":[96,202,112,78,86,243,164,56,75,151,63,58,69,254,245,178,44,43,198,186]},"announce":[],"urlList":[]}}